<?xml version="1.0" encoding="UTF-8" standalone="no"?>
<!DOCTYPE svg PUBLIC "-//W3C//DTD SVG 1.1//EN" "http://www.w3.org/Graphics/SVG/1.1/DTD/svg11.dtd">
<svg version="1.1" xmlns="http://www.w3.org/2000/svg" xmlns:xlink="http://www.w3.org/1999/xlink" preserveAspectRatio="xMidYMid meet" viewBox="326.3089259064691 -2.986447832761314 316.6910740935307 219.10844783276133" width="312.69" height="215.11"><defs><path d="M637.97 128.24L636.69 125.08L635.27 122.01L633.7 119.01L631.98 116.08L630.12 113.24L628.11 110.47L625.96 107.78L623.66 105.17L621.21 102.63L618.61 100.17L615.87 97.79L612.98 95.48L609.95 93.26L606.77 91.11L603.44 89.03L599.97 87.04L596.35 85.12L592.59 83.28L588.67 81.51L584.62 79.83L580.41 78.22L576.06 76.69L571.56 75.23L566.92 73.85L562.13 72.55L557.19 71.33L552.1 70.18L546.87 69.11L541.5 68.12L535.98 67.21L530.31 66.37L524.49 65.61L518.53 64.93L512.42 64.33L506.17 63.8L499.76 63.35L492.94 63.48L486.25 63.52L479.68 63.47L473.25 63.33L466.94 63.1L460.76 62.78L454.71 62.37L448.79 61.86L443 61.27L437.34 60.59L431.8 59.81L426.4 58.95L421.12 58L415.97 56.95L410.95 55.81L406.06 54.59L401.3 53.27L396.67 51.86L392.16 50.37L387.79 48.78L383.54 47.1L379.42 45.33L375.43 43.47L371.57 41.52L367.84 39.48L364.24 37.35L360.76 35.13L357.42 32.82L354.2 30.41L351.11 27.92L348.15 25.34L345.32 22.66L342.62 19.9L340.04 17.04L337.6 14.1L335.28 11.06L333.1 7.94L331.04 4.72L329.11 1.41L327.31 -1.99L640 -1.99L640 134.49L639.1 131.47L639.1 131.47L637.97 128.24Z" id="cXt8KWuaw"></path><path d="M635.85 212.4L632.82 211.72L629.83 210.92L626.9 210L624.01 208.98L621.18 207.85L618.41 206.61L615.69 205.26L613.03 203.82L610.44 202.28L607.91 200.64L605.45 198.91L603.06 197.08L600.74 195.17L598.5 193.17L596.34 191.09L594.26 188.93L592.26 186.69L590.35 184.37L588.53 181.98L586.8 179.52L585.16 177L583.61 174.4L582.17 171.75L580.83 169.03L579.59 166.25L578.45 163.42L577.43 160.53L576.52 157.6L575.72 154.62L575.03 151.59L574.47 148.51L574.02 145.4L573.7 142.25L573.51 139.06L573.44 135.85L573.51 132.63L573.73 129.44L574.09 126.29L574.58 123.18L575.2 120.1L575.95 117.08L576.82 114.09L577.82 111.16L578.93 108.27L580.16 105.44L581.49 102.66L582.94 99.95L584.48 97.29L586.13 94.69L587.87 92.17L589.7 89.71L591.62 87.32L593.62 85L595.7 82.76L597.86 80.6L600.1 78.52L602.4 76.52L604.77 74.61L607.2 72.79L609.69 71.05L612.24 69.41L614.83 67.87L617.48 66.43L620.17 65.08L622.89 63.84L625.66 62.71L628.46 61.69L631.28 60.77L634.14 59.97L637.01 59.29L639.91 58.72L640 58.71L640 213.12L638.92 212.97L638.92 212.97L635.85 212.4Z" id="cvSyzRE0i"></path><linearGradient id="gradientc2uP6HMGbM" gradientUnits="userSpaceOnUse" x1="632.7" y1="98.61" x2="579.44" y2="145.28"><stop style="stop-color: #8911e8;stop-opacity: 0.61" offset="0%"></stop><stop style="stop-color: #05ffd7;stop-opacity: 0.62" offset="100%"></stop></linearGradient></defs><g><g><use xlink:href="#cXt8KWuaw" opacity="1" fill="#ffffff" fill-opacity="1"></use><g><use xlink:href="#cXt8KWuaw" opacity="1" fill-opacity="0" stroke="#000000" stroke-width="0" stroke-opacity="1"></use></g></g><g><use xlink:href="#cvSyzRE0i" opacity="1" fill="url(#gradientc2uP6HMGbM)"></use><g><use xlink:href="#cvSyzRE0i" opacity="1" fill-opacity="0" stroke="#e19d00" stroke-width="0" stroke-opacity="1"></use></g></g></g></svg>